<svg 
height="100" viewBox="0 0 100 100" width="100" xmlns="http://www.w3.org/2000/svg">
<path d="m25.5 31.7h49v49h-49z" transform="matrix(.70710678 -.70710678 .70710678 .70710678 -25.1 51.8)"/>
<path d="m50 22.3 33.9 33.9-33.9 33.9-33.9-33.9zm0-1.4-35.4 35.3 35.4 35.4 35.4-35.4z"/>
<path d="m67.7 63c-6.5 0-12.7-2.5-17.3-7.2-4.6-4.6-7.2-10.8-7.2-17.3s2.5-12.7 7.2-17.3 10.8-7.2 17.3-7.2 12.7 2.5 17.3 7.2c4.6 4.6 7.2 10.8 7.2 17.3s-2.5 12.7-7.2 17.3c-4.6 4.6-10.8 7.2-17.3 7.2z"/>
<path d="m67.7 14.5c6.4 0 12.4 2.5 17 7 9.4 9.4 9.4 24.6 0 33.9-4.5 4.5-10.6 7-17 7s-12.4-2.5-17-7c-9.4-9.4-9.4-24.6 0-33.9 4.5-4.5 10.6-7 17-7m0-1c-6.4 0-12.8 2.4-17.7 7.3-9.8 9.8-9.8 25.6 0 35.4 4.9 4.9 11.3 7.3 17.7 7.3s12.8-2.4 17.7-7.3c9.8-9.8 9.8-25.6 0-35.4s-11.3-7.3-17.7-7.3z"/>
<path d="m32.3 63c-6.5 0-12.7-2.5-17.3-7.2-9.6-9.6-9.6-25.1 0-34.6 4.6-4.6 10.8-7.2 17.3-7.2s12.7 2.5 17.3 7.2 7.2 10.8 7.2 17.3-2.5 12.7-7.2 17.3c-4.6 4.6-10.8 7.2-17.3 7.2z"/>
<path d="m32.3 14.5c6.4 0 12.4 2.5 17 7 9.4 9.4 9.4 24.6 0 33.9-4.5 4.5-10.6 7-17 7s-12.4-2.5-17-7c-9.4-9.4-9.4-24.6 0-33.9 4.5-4.5 10.6-7 17-7m0-1c-6.4 0-12.8 2.4-17.7 7.3-9.8 9.8-9.8 25.6 0 35.4 4.9 4.9 11.3 7.3 17.7 7.3s12.8-2.4 17.7-7.3c9.8-9.8 9.8-25.6 0-35.4-4.9-4.9-11.3-7.3-17.7-7.3z"/>
</svg>